<?xml version="1.0" encoding="UTF-8"?><svg width="24" height="24" viewBox="0 0 48 48" fill="none" xmlns="http://www.w3.org/2000/svg"><path d="M43 26V32C43 33.1046 42.1046 34 41 34H7C5.89543 34 5 33.1046 5 32V12C5 10.8954 5.89543 10 7 10H16" stroke="#ffbe40" stroke-width="4" stroke-linecap="butt"/><path d="M4 40L44 40" stroke="#ffbe40" stroke-width="4" stroke-linecap="butt" stroke-linejoin="bevel"/><circle cx="30" cy="17" r="9" fill="#ffbe40" stroke="#ffbe40" stroke-width="4"/><path d="M19 18V16" stroke="#ffbe40" stroke-width="4" stroke-linecap="butt" stroke-linejoin="bevel"/><path d="M41 18V16" stroke="#ffbe40" stroke-width="4" stroke-linecap="butt" stroke-linejoin="bevel"/><path d="M30 8C29.8333 7 28.8 4.8 26 4" stroke="#ffbe40" stroke-width="4" stroke-linecap="butt" stroke-linejoin="bevel"/><path d="M30 8C30.0833 7 30.6 4.8 32 4" stroke="#ffbe40" stroke-width="4" stroke-linecap="butt" stroke-linejoin="bevel"/><circle cx="33" cy="16" r="2" fill="#000"/><circle cx="27" cy="16" r="2" fill="#000"/></svg>