<?xml version="1.0" encoding="UTF-8"?><svg width="24" height="24" viewBox="0 0 48 48" fill="none" xmlns="http://www.w3.org/2000/svg"><path d="M8 28V40H20" stroke="#ffbe40" stroke-width="4" stroke-linecap="butt" stroke-linejoin="bevel"/><path d="M28 40H40V28" stroke="#ffbe40" stroke-width="4" stroke-linecap="butt" stroke-linejoin="bevel"/><path d="M40 20V8H28" stroke="#ffbe40" stroke-width="4" stroke-linecap="butt" stroke-linejoin="bevel"/><path d="M20 8H8V20" stroke="#ffbe40" stroke-width="4" stroke-linecap="butt" stroke-linejoin="bevel"/><path d="M44 20H36V28H44V20Z" fill="#ffbe40" stroke="#ffbe40" stroke-width="4" stroke-linecap="butt" stroke-linejoin="bevel"/><path d="M12 20H4V28H12V20Z" fill="#ffbe40" stroke="#ffbe40" stroke-width="4" stroke-linecap="butt" stroke-linejoin="bevel"/><path d="M28 36H20V44H28V36Z" fill="#ffbe40" stroke="#ffbe40" stroke-width="4" stroke-linecap="butt" stroke-linejoin="bevel"/><path d="M28 4H20V12H28V4Z" fill="#ffbe40" stroke="#ffbe40" stroke-width="4" stroke-linecap="butt" stroke-linejoin="bevel"/><path d="M24 18V30" stroke="#ffbe40" stroke-width="4" stroke-linecap="butt" stroke-linejoin="bevel"/><path d="M18 24H30" stroke="#ffbe40" stroke-width="4" stroke-linecap="butt" stroke-linejoin="bevel"/><path d="M28 8L40 20" stroke="#ffbe40" stroke-width="4" stroke-linecap="butt" stroke-linejoin="bevel"/><path d="M20 8L8 20" stroke="#ffbe40" stroke-width="4" stroke-linecap="butt" stroke-linejoin="bevel"/><path d="M20 40L8 28" stroke="#ffbe40" stroke-width="4" stroke-linecap="butt" stroke-linejoin="bevel"/><path d="M40 28L29 40" stroke="#ffbe40" stroke-width="4" stroke-linecap="butt" stroke-linejoin="bevel"/></svg>