<?xml version="1.0" encoding="UTF-8"?><svg width="24" height="24" viewBox="0 0 48 48" fill="none" xmlns="http://www.w3.org/2000/svg"><rect x="5" y="5" width="38" height="20" rx="2" fill="#ffbe40" stroke="#ffbe40" stroke-width="4" stroke-linecap="butt" stroke-linejoin="bevel"/><path d="M14 5V25" stroke="#000" stroke-width="4" stroke-linecap="butt" stroke-linejoin="bevel"/><path d="M34 5V25" stroke="#000" stroke-width="4" stroke-linecap="butt" stroke-linejoin="bevel"/><path d="M30 5H38" stroke="#ffbe40" stroke-width="4" stroke-linecap="butt" stroke-linejoin="bevel"/><path d="M5 11L43 11" stroke="#000" stroke-width="4" stroke-linecap="butt" stroke-linejoin="bevel"/><path d="M5 19L43 19" stroke="#000" stroke-width="4" stroke-linecap="butt" stroke-linejoin="bevel"/><path d="M5 21V9" stroke="#ffbe40" stroke-width="4" stroke-linecap="butt" stroke-linejoin="bevel"/><path d="M43 21V9" stroke="#ffbe40" stroke-width="4" stroke-linecap="butt" stroke-linejoin="bevel"/><path d="M10 5H18" stroke="#ffbe40" stroke-width="4" stroke-linecap="butt" stroke-linejoin="bevel"/><path d="M30 25H38" stroke="#ffbe40" stroke-width="4" stroke-linecap="butt" stroke-linejoin="bevel"/><path d="M10 25H18" stroke="#ffbe40" stroke-width="4" stroke-linecap="butt" stroke-linejoin="bevel"/><path d="M32 25C32 29.4183 28.4183 33 24 33C19.5817 33 16 29.4183 16 25" stroke="#ffbe40" stroke-width="4" stroke-linecap="butt" stroke-linejoin="bevel"/><path d="M28 32L27 37V44" stroke="#ffbe40" stroke-width="4" stroke-linecap="butt" stroke-linejoin="bevel"/><path d="M20 32L21 37V44" stroke="#ffbe40" stroke-width="4" stroke-linecap="butt" stroke-linejoin="bevel"/></svg>